# xmcd CD database file
#
# Track frame offsets:
#	150
#	22590
#	60927
#	80799
#	111775
#	138870
#	158904
#	197874
#	223472
#	250587
#	278942
#	308529
#
# Disc length: 4744 seconds
#
# Revision: 0
# Processed by: cddbd v1.5.2PL0 Copyright (c) Steve Scherf et al.
# Submitted via: CDex 1.82
#
DISCID=9f12860c
DTITLE=Ruben Blades - Historia Musical CD1
DYEAR=2016
DGENRE=Salsa
TTITLE0=Decisiones
TTITLE1=Yo no puedo vivir del Amor
TTITLE2=Noe
TTITLE3=Tiburon
TTITLE4=Segun el Color
TTITLE5=Todos vuelven
TTITLE6=El Padre Antonio (en vivo)
TTITLE7=Buscando Guayaba
TTITLE8=Ligia Elena
TTITLE9=El Cantante
TTITLE10=Plastico
TTITLE11=Buscando America (en vivo)
EXTD=YEAR: 2016
EXTT0=
EXTT1=
EXTT2=
EXTT3=
EXTT4=
EXTT5=
EXTT6=
EXTT7=
EXTT8=
EXTT9=
EXTT10=
EXTT11=
PLAYORDER=
